<svg width="934" height="864" viewBox="0 0 934 864" fill="none" xmlns="http://www.w3.org/2000/svg" xmlns:xlink="http://www.w3.org/1999/xlink">
<path d="M277.616,864C190.815,864 153.215,786.2 120.015,717.6C116.015,709.2 112.015,701.2 108.215,693.4C102.415,682 96.415,670.2 90.615,658.8C46.615,573 1.015,484.2 0.015,387.4C-0.785,304.2 29.415,231.2 89.415,170.4C144.215,115 225.216,69.6 323.416,39.6C406.216,14.2 499.016,0.2 584.616,0C620.016,0 660.016,3.8 687.016,32.2C710.816,57.2 726.216,92 741.216,125.4C745.816,135.6 750.016,145.2 754.616,154.4C795.016,237.8 828.416,307.2 859.616,380.8L863.616,390.2C895.216,464.6 931.216,549 932.016,631.6C932.616,677 910.416,701.2 860.216,710C840.816,713.4 821.016,716 801.816,718.4C768.616,722.8 734.416,727.2 701.016,736C649.816,749.6 597.616,770.8 547.416,791.2C460.616,826.4 371.016,862.8 279.216,864C278.816,864 278.216,864 277.616,864ZM585.216,2C585.016,2 584.816,2 584.616,2C499.216,2.2 406.616,16.2 324.016,41.4C226.216,71.4 145.615,116.6 90.815,171.8C31.215,232.2 1.215,304.8 2.015,387.4C2.815,483.8 48.415,572.4 92.415,658C98.215,669.4 104.215,681 110.015,692.6C114.015,700.4 117.815,708.4 122.015,716.8C155.015,785 192.415,862 277.816,862.2C278.416,862.2 279.016,862.2 279.416,862.2C370.816,861.2 460.416,824.8 546.816,789.6C597.216,769.2 649.216,748 700.616,734.4C734.216,725.6 768.416,721 801.616,716.6C820.616,714.2 840.416,711.6 859.816,708.2C908.816,699.6 930.416,676 930.016,631.8C929.016,549.6 893.216,465.4 861.616,391.2L857.616,381.8C826.416,308.4 793.016,238.8 752.616,155.4C748.216,146.2 743.816,136.4 739.216,126.2C724.216,92.8 708.816,58.4 685.416,33.6C659.216,5.8 620.016,2 585.216,2Z" fill="#A2C579"/>
<path d="M272.415,826.4C187.815,826.4 146.015,736.4 112.215,664L110.015,659.4C70.415,574.2 28.015,475.6 25.415,382C23.415,311.8 48.215,249.2 99.215,195.8C150.615,141.8 229.615,97.2 328.015,66.6C406.815,42 497.215,27 576.015,25.4C660.615,23.6 690.215,88.8 721.615,157.8C723.615,162.2 725.615,166.6 727.615,171C740.815,200 755.615,229.6 771.015,261C827.615,375.8 891.615,506 893.615,621.8C894.215,659.6 868.815,681.8 815.615,689.2C798.615,691.6 781.415,693.4 764.615,695.4C731.415,699 697.215,702.8 663.815,710.4C610.615,722.6 556.615,743.6 504.615,764C429.215,793.6 351.215,824 276.415,826.4C274.815,826.4 273.615,826.4 272.415,826.4ZM275.815,824.4C350.215,822.2 428.015,791.6 503.415,762.2C555.615,741.8 609.615,720.6 663.015,708.4C696.615,700.8 731.015,697 764.215,693.2C780.815,691.4 798.015,689.4 815.015,687C866.815,679.8 891.815,658.4 891.215,621.6C889.215,506.2 825.215,376.2 768.815,261.6C753.415,230.2 738.815,200.6 725.415,171.4C723.415,167 721.415,162.6 719.415,158.2C688.415,89.8 659.015,25.2 575.815,26.8C497.215,28.4 407.015,43.4 328.415,68C230.415,98.6 151.615,143 100.615,196.8C50.015,250.2 25.415,312.4 27.415,382C30.015,475.2 72.415,573.6 112.015,658.6L114.215,663.2C148.015,736 190.415,826.8 275.815,824.4Z" fill="#A2C579"/>
<path d="M262.615,777.601C188.415,777.601 143.215,698.601 108.815,620.801C66.615,525.201 43.216,437.601 41.216,367.801C39.616,311.801 57.216,261.001 93.415,216.6C124.815,178.2 170.015,144.8 227.815,117C335.215,65.6 465.615,44.2 551.815,41.4C630.215,38.8 660.415,107.8 689.615,174.4L692.615,181C704.615,208.2 717.615,236 731.615,265.201C784.415,376.801 839.015,492.401 841.015,596.001C841.815,638.801 795.815,653.001 768.215,657.601C746.615,661.201 724.615,663.801 703.415,666.201C676.415,669.201 648.415,672.401 621.015,678.001C570.415,688.401 518.415,707.001 468.415,725.201C397.415,750.801 330.415,775.001 266.615,777.601C265.415,777.601 264.015,777.601 262.615,777.601ZM556.215,43.2C554.815,43.2 553.415,43.2 552.015,43.2C466.015,46 336.015,67.4 228.815,118.6C171.215,146.2 126.215,179.6 95.015,217.6C59.016,261.601 41.616,312.001 43.216,367.401C45.216,437.001 68.415,524.401 110.615,619.801C144.815,697.001 189.415,775.401 262.615,775.401C264.015,775.401 265.415,775.401 266.815,775.401C330.415,772.801 397.215,748.801 468.015,723.201C518.215,705.001 570.215,686.401 621.015,676.001C648.415,670.401 676.415,667.201 703.615,664.201C724.815,661.801 746.815,659.201 768.215,655.601C795.215,651.001 840.215,637.201 839.215,596.001C837.015,492.801 782.615,377.601 730.015,266.201C716.215,236.8 703.015,209.2 691.015,181.8L688.015,175.2C659.615,110.2 630.015,43.2 556.215,43.2Z" fill="#A2C579"/>
<path d="M248.816,719.799C193.016,719.799 145.816,673.199 104.816,577.599C71.616,500.399 51.415,416.199 49.415,346.199C48.015,295.799 64.215,249.999 97.616,209.8C126.416,175 168.216,144.6 221.416,119.2C320.616,72 438.816,52.2 516.216,49.6C591.816,47 624.816,123.4 651.216,184.6C660.416,205.8 670.216,227.4 680.416,250.199C725.016,348.799 775.616,460.599 778.416,556.799C780.216,615.599 682.016,625.999 617.216,632.999C600.416,634.799 586.016,636.399 575.216,638.399C530.016,646.999 483.216,661.999 438.016,676.599C372.616,697.599 310.616,717.399 252.816,719.799C251.616,719.799 250.216,719.799 248.816,719.799ZM520.016,51.4C518.816,51.4 517.616,51.4 516.416,51.4C439.016,54 321.216,73.8 222.416,120.8C169.416,146 128.016,176.4 99.416,210.8C66.215,250.599 50.215,295.999 51.615,345.999C53.615,415.599 73.816,499.799 106.816,576.799C147.616,671.599 194.216,717.799 249.016,717.799C250.416,717.799 251.616,717.799 253.016,717.799C310.616,715.399 372.216,695.599 437.616,674.599C482.816,659.999 529.616,644.999 575.016,636.399C585.816,634.399 600.416,632.799 617.216,630.999C681.416,624.199 778.416,613.799 776.616,556.799C773.816,460.999 723.216,349.399 678.816,250.999C668.416,228.2 658.816,206.6 649.616,185.4C623.616,125.6 591.616,51.4 520.016,51.4Z" fill="#A2C579"/>
<path d="M232.215,655.001C206.415,655.001 182.015,644.401 159.615,623.201C119.415,585.201 93.815,521.601 79.415,474.801C60.216,412.401 52.616,353.201 51.616,318.801C49.216,214 135.015,150.6 207.415,115.8C297.216,72.6 402.416,54.4 471.016,51.6C545.216,48.6 581.016,131.6 602.216,181.2C607.016,192.4 612.016,204 617.216,215.6C658.016,309.001 704.416,415.001 707.416,507.401C709.216,566.001 617.216,578.601 556.216,587.001C544.216,588.601 533.616,590.001 525.216,591.601C488.016,598.601 449.416,609.201 412.216,619.601C352.616,636.001 290.816,653.001 235.415,655.001C234.415,655.001 233.415,655.001 232.215,655.001ZM475.016,53.6C473.816,53.6 472.416,53.6 471.216,53.6C406.016,56.2 298.216,74.4 208.415,117.6C136.415,152.2 51.216,215.2 53.816,318.801C54.616,353.001 62.216,411.801 81.415,474.201C95.615,520.601 121.015,584.001 161.015,621.601C184.015,643.201 209.015,653.801 235.415,652.801C290.616,650.801 352.216,634.001 411.816,617.401C449.216,607.001 487.816,596.401 525.016,589.401C533.416,587.801 544.016,586.401 556.016,584.801C616.216,576.601 707.216,564.201 705.416,507.401C702.416,415.401 656.216,309.801 615.416,216.4C610.416,204.8 605.416,193.4 600.416,182C573.616,119.8 539.616,53.6 475.016,53.6Z" fill="#A2C579"/>
<path d="M213.016,584.999C186.216,584.999 161.416,574.399 139.616,553.399C76.216,492.399 50.816,357.999 49.616,287.599C48.216,195.6 123.216,138.8 186.216,107.4C267.216,67.2 362.216,51.2 419.216,49.6C449.816,48.8 476.216,61.8 499.816,89.6C520.016,113.4 535.016,144.6 547.016,172C581.216,250.599 628.216,357.999 630.616,450.599C632.216,510.599 548.816,524.799 493.616,534.199C486.016,535.599 478.816,536.799 472.616,537.999C447.216,542.999 421.016,549.199 395.616,554.999C335.416,568.999 273.216,583.599 215.616,584.999C214.616,584.999 213.816,584.999 213.016,584.999ZM421.816,51.6C421.016,51.6 420.016,51.6 419.216,51.6C362.616,53 267.816,69 187.216,109.2C124.616,140.4 50.216,196.6 51.615,287.399C52.615,357.399 77.816,491.199 141.016,551.799C163.216,572.999 188.216,583.599 215.416,582.799C272.616,581.399 334.816,566.799 395.016,552.799C420.416,546.799 446.616,540.799 472.016,535.799C478.216,534.599 485.416,533.399 493.216,531.999C547.816,522.799 630.216,508.599 628.616,450.399C626.016,358.199 579.416,250.999 545.216,172.6C517.616,109.8 483.616,51.6 421.816,51.6Z" fill="#A2C579"/>
<path d="M191.215,512.2C164.015,512.2 139.815,502.2 119.215,482.4C94.415,458.6 75.015,421.2 61.615,371.4C47.615,319.4 45.415,271.8 45.015,253.6C44.215,214.6 59.415,178.8 90.215,147.4C154.815,81.2 279.215,45.2 363.215,45C363.415,45 363.415,45 363.615,45C426.215,45 459.215,99.2 485.615,157.8C541.815,282.8 549.215,349.8 549.815,389.4C550.815,450.4 476.215,466 427.015,476.4C423.615,477.2 420.415,477.8 417.215,478.4C348.415,493.2 270.415,510.2 193.815,512C193.015,512.2 192.215,512.2 191.215,512.2ZM363.815,47C363.615,47 363.615,47 363.415,47C279.615,47.2 156.015,83 91.815,148.8C61.415,180 46.415,215.2 47.215,253.6C47.615,271.6 50.015,319 63.815,370.8C77.015,420.2 96.215,457.2 120.815,480.8C141.615,500.8 166.215,510.6 194.015,510C270.415,508.2 348.415,491.4 417.015,476.6C420.215,476 423.415,475.2 426.815,474.6C475.615,464.4 549.215,448.8 548.015,389.6C546.615,307.4 510.815,218.4 483.815,158.8C457.815,100.8 425.215,47 363.815,47Z" fill="#A2C579"/>
<path d="M171.215,438.401C144.415,438.401 120.815,428.201 100.815,407.801C80.215,387.001 63.615,355.401 52.815,316.401C44.015,284.801 39.216,249.601 39.816,219.4C40.616,169 75.615,121.8 138.215,86.2C189.615,57.2 255.615,38.8 306.415,39.6C367.215,40.6 406.215,101.2 428.415,152C455.215,213.6 467.815,284.201 468.415,327.001C468.615,344.601 462.015,360.401 448.615,374.001C390.815,433.001 222.215,438.201 171.815,438.401C171.615,438.401 171.415,438.401 171.215,438.401ZM302.815,41.6C252.815,41.6 188.815,59.6 138.815,88C76.815,123 42.215,169.8 41.416,219.4C40.016,304.401 71.815,376.001 102.015,406.401C121.615,426.201 144.815,436.401 171.015,436.401C171.215,436.401 171.415,436.401 171.415,436.401C221.615,436.201 389.615,431.001 446.815,372.601C459.815,359.401 466.215,344.001 466.015,327.001C465.415,284.401 452.815,214.2 426.015,152.8C404.215,102.6 365.615,42.6 305.815,41.6C305.015,41.6 304.015,41.6 302.815,41.6Z" fill="#A2C579"/>
<path d="M153.615,365.601C152.415,365.601 151.215,365.601 150.215,365.601C126.615,365.401 105.615,356.001 87.415,337.401C51.615,300.401 34.015,233.2 35.215,185.8C36.215,146.4 65.015,107.8 116.015,77C158.815,51.4 211.415,34.8 250.416,35.2C273.816,35.4 295.616,45.8 315.416,66C365.816,117.4 388.416,215.8 387.816,266.001C387.416,306.001 354.616,334.601 290.816,351.001C241.616,363.401 185.015,365.601 153.615,365.601ZM249.416,37C211.015,37 159.015,53.2 117.015,78.6C87.815,96.2 38.415,133.4 37.015,185.6C35.815,232.6 53.215,299.201 88.815,335.801C106.615,354.001 127.215,363.401 150.215,363.401C180.815,363.601 239.616,361.801 290.616,348.801C353.416,332.801 385.616,304.801 386.016,265.801C386.616,215.8 364.216,118.2 314.216,67.2C294.816,47.4 273.416,37.2 250.616,37C250.016,37 249.816,37 249.416,37Z" fill="#A2C579"/>
<path d="M134.816,295.799C133.016,295.799 131.416,295.799 130.016,295.799C110.016,295.399 91.616,286.799 75.616,269.999C46.216,239.199 32.016,188.6 33.016,154.4C35.016,87.2 143.816,32.6 198.616,33.2C218.416,33.4 237.216,42.6 254.616,60.6C291.216,98.6 312.016,166.2 310.816,209.4C310.016,242.399 285.616,266.799 238.416,281.599C197.816,294.399 153.216,295.799 134.816,295.799ZM197.816,35.2C143.416,35.2 37.016,88.6 35.016,154.6C34.016,188.4 48.016,238.399 77.016,268.799C92.616,285.199 110.416,293.599 130.016,293.999C195.616,294.999 307.216,278.399 309.016,209.6C310.216,167.8 289.216,99.4 253.216,62.2C236.216,44.6 217.816,35.6 198.616,35.4C198.416,35.2 198.216,35.2 197.816,35.2Z" fill="#A2C579"/>
<path d="M113.815,231.2C113.415,231.2 113.015,231.2 112.615,231.2C95.815,231 79.815,223.4 66.215,208.8C44.215,185.2 34.015,150 35.415,127.4C36.615,106.4 52.815,83.2 79.615,63.8C104.415,45.8 132.815,35 153.815,35.8C202.215,37.4 241.415,113.6 240.215,160.4C239.615,184.6 222.415,204 190.615,217C164.215,227.4 133.015,231.2 113.815,231.2ZM151.815,37.4C108.015,37.4 40.015,84.6 37.415,127.4C36.015,149.6 46.015,184.2 67.815,207.4C81.015,221.6 96.615,229 112.815,229.2C153.215,229.6 237.015,213 238.415,160.2C239.015,137.4 229.615,107 214.415,82.4C204.415,66 183.015,38.6 154.015,37.6C153.215,37.4 152.615,37.4 151.815,37.4Z" fill="#A2C579"/>
<path d="M101.415,173.6C100.615,173.6 99.815,173.6 99.015,173.6C86.415,173.2 73.815,166.8 63.416,155.6C50.616,141.8 43.016,122.2 43.816,105.8C45.416,73.4 91.415,44.2 118.215,43.8C129.815,43.8 141.415,49.2 151.815,59.8C167.615,75.8 178.215,101.2 177.815,121.4C177.416,132.8 172.615,143 163.615,151.6C147.416,166.8 120.615,173.6 101.415,173.6ZM118.815,46C118.615,46 118.615,46 118.415,46C92.215,46.2 47.616,74.6 46.016,106C45.216,121.8 52.616,140.8 65.015,154.2C75.015,165 87.015,171.2 99.215,171.6C118.015,172.2 146.015,165.8 162.415,150.2C171.015,142 175.615,132.4 176.015,121.4C176.615,102 166.015,76.8 150.615,61.4C140.615,51.2 129.615,46 118.815,46Z" fill="#A2C579"/>
<path d="M88.816,125.2C82.016,125.2 75.415,122.4 70.215,117.4C63.615,111 59.815,101.4 60.015,91.8C60.415,77.8 75.815,61 95.016,60C101.416,59.8 108.016,62.6 113.816,68.4C121.416,76 126.416,87 126.216,96C125.816,114 107.616,124.2 90.016,125.2C89.616,125.2 89.216,125.2 88.816,125.2ZM96.016,62.2C95.816,62.2 95.416,62.2 95.216,62.2C80.616,62.8 62.415,76.4 62.215,92C62.015,101 65.615,110 71.815,116C77.015,121 83.416,123.6 90.216,123.2C106.816,122.4 124.016,112.8 124.416,96C124.616,87.6 120.016,77.2 112.616,70C107.416,64.8 101.616,62.2 96.016,62.2Z" fill="#A2C579"/>
</svg>
