<svg width="1362" height="1392" viewBox="0 0 1362 1392" fill="none" xmlns="http://www.w3.org/2000/svg" xmlns:xlink="http://www.w3.org/1999/xlink">
<path d="M1362,348L1362,0L681,0L681,348C681,155.604 528.374,0 340.5,0C152.25,0 0,155.987 0,348L0,696L340.5,696C152.25,696 0,851.986 0,1044L0,1392L681,1392L681,1044C681,1236.396 833.624,1392 1021.5,1392C1209.75,1392 1362,1236.014 1362,1044L1362,696L1021.5,696C1209.75,696 1362,540.014 1362,348ZM681,696L681,1044C681,851.604 528.374,696 340.5,696L681,696L681,348C681,540.396 833.624,696 1021.5,696L681,696Z" fill="url(#pattern_0_13_12)"/>
</svg>
